<svg width="327" height="59" viewBox="0 0 327 59" fill="none" xmlns="http://www.w3.org/2000/svg">
<g clip-path="url(#clip0_9302_5262)">
<g clip-path="url(#clip1_9302_5262)">
<mask id="mask0_9302_5262" style="mask-type:luminance" maskUnits="userSpaceOnUse" x="0" y="0" width="327" height="59">
<path d="M326.568 0.140625H0V59.0026H326.568V0.140625Z" fill="white"/>
</mask>
<g mask="url(#mask0_9302_5262)">
<path d="M148.8 0.6875L157.119 23.2785H151.104L149.984 19.6625H141.664L140.544 23.2785H134.529L142.916 0.6875H148.8ZM145.76 6.0635C145.472 7.2145 145.152 8.3995 144.832 9.5505C144.352 11.2505 143.488 13.9025 142.976 15.5985H148.704L145.76 6.0635Z" fill="white"/>
<path d="M163.179 8.30181C164.52 7.12421 166.227 6.44629 168.011 6.38281V10.7348L166.379 10.9898C164.011 11.4058 163.307 11.7578 163.307 13.8698V23.2778H158.379V6.54281H163.179V8.30181Z" fill="white"/>
<path d="M169.707 0.65625H174.571V4.46525H169.707V0.65625ZM169.707 6.54425H174.571V23.2793H169.707V6.54425Z" fill="white"/>
<path d="M177.579 6.57812H191.879V10.3531L182.984 19.4411H191.879V23.2811H176.619V19.5691L185.642 10.3531H177.579V6.57812Z" fill="white"/>
<path d="M210.729 14.8992C210.729 19.1232 208.298 23.7622 201.77 23.7622C197.07 23.7622 192.778 21.0752 192.778 14.8992C192.778 9.78025 196.01 5.71525 202.41 6.06825C209.225 6.45225 210.729 11.8592 210.729 14.8992ZM198.57 11.5992C197.99 12.5868 197.701 13.7185 197.738 14.8632C197.738 17.5192 199.018 19.8552 201.77 19.8552C204.425 19.8552 205.737 17.7112 205.737 15.0872C205.8 14.332 205.711 13.5718 205.475 12.8517C205.239 12.1316 204.86 11.4663 204.362 10.8952C203.979 10.5394 203.523 10.2719 203.025 10.1115C202.527 9.95119 202.001 9.90194 201.482 9.96725C200.896 9.95842 200.318 10.1047 199.806 10.3913C199.295 10.6779 198.868 11.0947 198.57 11.5992Z" fill="white"/>
<path d="M217.355 8.07761C217.805 7.52177 218.374 7.07352 219.019 6.76561C219.984 6.36963 221.016 6.1632 222.059 6.15761C223.091 6.13627 224.112 6.36694 225.034 6.82961C226.794 7.75761 227.242 9.26161 227.242 11.8526V23.2766H222.342V13.8696C222.425 13.0297 222.35 12.1816 222.119 11.3696C221.925 10.9569 221.61 10.6133 221.215 10.3846C220.821 10.1559 220.366 10.053 219.911 10.0896C217.319 10.0896 217.319 12.1696 217.319 14.2496V23.2726H212.4V6.60561H217.36L217.355 8.07761Z" fill="white"/>
<path d="M229.674 11.3086C229.664 10.5966 229.817 9.89166 230.122 9.24824C230.427 8.60481 230.876 8.04009 231.434 7.59764C233.039 6.50159 234.968 5.9823 236.906 6.12464C238.954 6.12464 243.913 6.60464 243.913 10.9246V20.6516C243.913 22.4436 244.013 22.6996 244.393 23.2756H239.561V21.7416C238.149 22.997 236.331 23.7014 234.442 23.7256C233.742 23.7815 233.038 23.6913 232.375 23.4607C231.711 23.2301 231.103 22.8642 230.589 22.3863C230.074 21.9083 229.665 21.3286 229.386 20.684C229.107 20.0394 228.966 19.3439 228.97 18.6416C229.022 17.5847 229.383 16.5662 230.009 15.7128C230.635 14.8595 231.498 14.2088 232.49 13.8416C234.643 13.1572 236.847 12.6436 239.081 12.3056V11.4056C239.018 10.6376 238.954 9.35764 237.194 9.35764C235.018 9.35764 234.73 10.7016 234.602 11.3096L229.674 11.3086ZM235.914 16.3326C235.082 16.6516 233.802 17.1326 233.802 18.4116C233.825 18.8825 234.032 19.3254 234.38 19.6438C234.728 19.9622 235.187 20.1304 235.658 20.1116C236.265 20.0941 236.854 19.9055 237.358 19.5676C238.99 18.5436 239.058 17.0086 239.085 15.2796L235.914 16.3326Z" fill="white"/>
<path d="M254.826 16.4954C255.427 17.2208 256.166 17.8194 257 18.2564C258.34 18.9689 259.834 19.3424 261.351 19.3444C263.592 19.3444 265.511 18.2874 265.511 16.7204C265.511 14.9284 263.239 14.6404 261.575 14.4204C260.327 14.2604 259.08 14.1004 257.863 13.8444C256.488 13.5564 251.783 12.5634 251.783 7.70044C251.783 1.87744 256.968 0.148438 260.871 0.148438C266.087 0.148438 268.903 2.67744 270.854 4.43644L266.7 7.40844C266.042 6.69898 265.288 6.08503 264.46 5.58444C263.329 4.96709 262.068 4.62742 260.78 4.59344C258.541 4.59344 257.421 5.87244 257.421 6.96044C257.421 8.68844 259.341 8.94444 260.301 9.07244C262.637 9.33542 264.948 9.78485 267.212 10.4164C268.377 10.7868 269.389 11.5283 270.093 12.5278C270.797 13.5272 271.155 14.7296 271.112 15.9514C271.095 17.7118 270.461 19.4104 269.321 20.7514C267.273 23.1194 264.009 23.7914 260.842 23.7914C254.473 23.7914 251.942 20.8484 250.542 19.2164L254.826 16.4954Z" fill="white"/>
<path d="M273.546 1.74219H278.446V6.95819H281.677V9.96619H278.413V17.4852C278.381 18.5102 278.381 19.3732 279.694 19.3732L281.453 19.3092V23.1492C280.598 23.306 279.731 23.3916 278.862 23.4052C277.162 23.4052 275.31 23.3052 274.254 21.7732C273.582 20.7812 273.554 19.5972 273.554 17.9972V9.93319H271.122V6.92719H273.554L273.546 1.74219Z" fill="white"/>
<path d="M283.178 11.3086C283.167 10.5966 283.32 9.89155 283.626 9.24809C283.931 8.60463 284.38 8.03994 284.938 7.59764C286.542 6.50159 288.471 5.98229 290.409 6.12464C292.457 6.12464 297.416 6.60464 297.416 10.9246V20.6516C297.416 22.4436 297.516 22.6996 297.896 23.2756H293.064V21.7416C291.652 22.997 289.834 23.7014 287.945 23.7256C287.245 23.7815 286.541 23.6912 285.877 23.4605C285.214 23.2297 284.605 22.8635 284.091 22.3852C283.576 21.9069 283.167 21.3268 282.889 20.6818C282.61 20.0369 282.469 19.3411 282.474 18.6386C282.526 17.5818 282.887 16.5634 283.513 15.7101C284.138 14.8567 285.001 14.2059 285.993 13.8386C288.147 13.1541 290.351 12.6405 292.585 12.3026V11.4026C292.521 10.6346 292.457 9.35464 290.697 9.35464C288.521 9.35464 288.233 10.6986 288.105 11.3066L283.178 11.3086ZM289.417 16.3326C288.585 16.6516 287.306 17.1326 287.306 18.4116C287.328 18.8824 287.536 19.3253 287.883 19.6438C288.231 19.9622 288.69 20.1304 289.161 20.1116C289.768 20.0943 290.357 19.9057 290.861 19.5676C292.493 18.5436 292.561 17.0086 292.589 15.2796L289.417 16.3326Z" fill="white"/>
<path d="M300.841 1.74219H305.741V6.95819H308.973V9.96619H305.7V17.4852C305.668 18.5102 305.668 19.3732 306.98 19.3732L308.739 19.3092V23.1492C307.884 23.306 307.017 23.3916 306.148 23.4052C304.448 23.4052 302.596 23.3052 301.54 21.7732C300.868 20.7812 300.84 19.5972 300.84 17.9972V9.93319H298.408V6.92719H300.84L300.841 1.74219Z" fill="white"/>
<path d="M326.376 19.0222C325.809 19.9351 325.133 20.7747 324.361 21.5222C322.636 23.0803 320.385 23.9262 318.061 23.8892C313.101 23.8892 309.614 20.7222 309.614 15.2502C309.614 11.2182 311.597 6.03522 318.19 6.03522C319.304 6.00035 320.413 6.19547 321.448 6.6084C322.483 7.02134 323.422 7.64322 324.206 8.43522C326.381 10.7702 326.506 14.0352 326.574 15.9222H314.633C314.6 18.0012 315.785 20.0812 318.44 20.0812C321.128 20.0812 322.056 18.3222 322.664 17.1382L326.376 19.0222ZM321.476 12.8462C321.434 11.9769 321.108 11.1453 320.548 10.4792C319.897 9.87293 319.038 9.5403 318.148 9.55022C317.679 9.54876 317.214 9.6447 316.784 9.83198C316.354 10.0193 315.967 10.2938 315.648 10.6382C315.116 11.2663 314.773 12.0316 314.657 12.8462H321.476Z" fill="white"/>
<path d="M154.563 30.6875V43.2945C154.531 45.4705 154.499 47.6465 153.251 49.6945C150.819 53.5945 145.796 53.7945 144.836 53.7945C143.017 53.7916 141.223 53.3758 139.588 52.5785C135.236 50.3375 135.236 46.3705 135.269 43.2985V30.6875H140.969V44.7665C140.883 45.7249 141.026 46.6899 141.385 47.5825C142.085 48.7665 143.625 49.1185 145.033 49.1185C148.873 49.1185 148.873 46.4945 148.904 44.7345V30.6875H154.563Z" fill="white"/>
<path d="M162.084 38.0776C162.534 37.5218 163.103 37.0735 163.748 36.7656C164.713 36.3696 165.745 36.1632 166.788 36.1576C167.82 36.1363 168.841 36.3669 169.763 36.8296C171.523 37.7576 171.971 39.2616 171.971 41.8526V53.2766H167.071V43.8696C167.154 43.0297 167.079 42.1816 166.848 41.3696C166.654 40.9569 166.339 40.6133 165.944 40.3846C165.549 40.1559 165.095 40.053 164.64 40.0896C162.048 40.0896 162.048 42.1696 162.048 44.2496V53.2726H157.12V36.6056H162.08L162.084 38.0776Z" fill="white"/>
<path d="M174.532 30.6562H179.4V34.4653H174.536L174.532 30.6562ZM174.532 36.5442H179.4V53.2792H174.536L174.532 36.5442Z" fill="white"/>
<path d="M180.835 36.5743H186.02C187.244 40.5646 188.226 44.6249 188.962 48.7333C189.634 45.0213 189.731 44.6053 190.722 40.6703L191.746 36.5703H196.8L191.393 53.2703H186.241L180.835 36.5743Z" fill="white"/>
<path d="M213.507 49.0222C212.941 49.9356 212.264 50.7753 211.491 51.5222C209.767 53.0807 207.515 53.9267 205.191 53.8892C200.232 53.8892 196.744 50.7222 196.744 45.2502C196.744 41.2182 198.728 36.0352 205.319 36.0352C206.433 36.0003 207.542 36.1954 208.577 36.6083C209.612 37.0213 210.551 37.6432 211.335 38.4352C213.511 40.7702 213.635 44.0352 213.703 45.9222H201.763C201.732 48.0012 202.916 50.0812 205.571 50.0812C208.259 50.0812 209.187 48.3222 209.795 47.1382L213.507 49.0222ZM208.607 42.8462C208.566 41.9768 208.24 41.1451 207.679 40.4792C207.028 39.8731 206.169 39.5405 205.279 39.5502C204.81 39.5485 204.345 39.6444 203.915 39.8317C203.484 40.0189 203.098 40.2936 202.779 40.6382C202.252 41.2666 201.913 42.0308 201.8 42.8432L208.607 42.8462Z" fill="white"/>
<path d="M220.483 38.3018C221.824 37.1242 223.531 36.4463 225.315 36.3828V40.7348L223.683 40.9898C221.315 41.4058 220.611 41.7578 220.611 43.8698V53.2778H215.683V36.5428H220.483V38.3018Z" fill="white"/>
<path d="M228.291 47.6435C229.55 49.0155 231.296 49.841 233.155 49.9435C234.339 49.9435 236.131 49.5595 236.131 48.3115C236.134 48.1056 236.074 47.9037 235.96 47.7323C235.846 47.561 235.682 47.4282 235.491 47.3515C234.576 47.0084 233.617 46.793 232.643 46.7115C231.887 46.5865 231.139 46.4158 230.403 46.2005C229.368 45.963 228.41 45.4673 227.619 44.7595C226.812 43.9155 226.365 42.791 226.372 41.6235C226.372 38.8715 228.739 36.0235 233.411 36.0235C236.103 36.0138 238.724 36.8926 240.866 38.5235L237.827 41.3435C236.652 40.3416 235.178 39.7565 233.635 39.6795C231.715 39.6795 231.267 40.4485 231.267 40.9275C231.267 41.8875 232.323 42.0805 233.923 42.3685C237.283 42.9755 241.187 43.8685 241.187 47.8395C241.187 51.7755 237.219 53.6955 233.287 53.6955C231.788 53.7373 230.296 53.472 228.903 52.9161C227.51 52.3601 226.245 51.5251 225.187 50.4625L228.291 47.6435Z" fill="white"/>
<path d="M242.723 30.6562H247.587V34.4653H242.723V30.6562ZM242.723 36.5442H247.587V53.2792H242.723V36.5442Z" fill="white"/>
<path d="M251.747 31.7422H256.647V36.9582H259.878V39.9662H256.615V47.4852C256.583 48.5102 256.583 49.3732 257.895 49.3732L259.655 49.3092V53.1492C258.8 53.306 257.933 53.3916 257.063 53.4052C255.363 53.4052 253.511 53.3052 252.455 51.7732C251.783 50.7812 251.755 49.5972 251.755 47.9972V39.9332H249.323V36.9272H251.755L251.747 31.7422Z" fill="white"/>
<path d="M277.026 36.5781L271.138 54.6251C270.831 55.7358 270.297 56.7708 269.57 57.6651C269.122 58.1477 268.568 58.5201 267.951 58.7532C267.335 58.9864 266.674 59.0739 266.018 59.0091H262.466V55.1091H264.2C265 55.0781 266.248 55.0781 266.248 53.8941C266.226 53.4913 266.15 53.0931 266.023 52.7101L261.032 36.5831H266.279L269.026 48.5461L271.778 36.5791L277.026 36.5781Z" fill="white"/>
<path d="M124.121 4.75043C123.862 4.75589 123.605 4.70958 123.364 4.61422C123.124 4.51886 122.904 4.37637 122.72 4.19513C122.535 4.01389 122.388 3.79754 122.288 3.55879C122.188 3.32005 122.137 3.06372 122.137 2.80486C122.137 2.546 122.19 2.28983 122.29 2.0514C122.391 1.81296 122.538 1.59707 122.724 1.41639C122.909 1.23572 123.129 1.09391 123.37 0.9993C123.611 0.904684 123.868 0.859169 124.127 0.865427C124.383 0.863541 124.636 0.912728 124.873 1.01011C125.109 1.10748 125.324 1.2511 125.504 1.43252C125.685 1.61395 125.827 1.82954 125.923 2.06666C126.019 2.30378 126.066 2.55766 126.063 2.81343C126.065 3.06882 126.016 3.32207 125.919 3.55837C125.823 3.79468 125.679 4.00928 125.499 4.18965C125.318 4.37001 125.103 4.5125 124.866 4.60879C124.63 4.70508 124.376 4.75323 124.121 4.75043ZM124.116 0.609427C123.827 0.607421 123.54 0.663008 123.273 0.772945C123.005 0.882882 122.762 1.04497 122.558 1.24975C122.354 1.45454 122.193 1.69791 122.084 1.96569C121.975 2.23348 121.92 2.5203 121.923 2.80943C121.921 3.3929 122.152 3.95311 122.563 4.36682C122.975 4.78052 123.533 5.01384 124.117 5.01543C124.7 5.01702 125.261 4.78676 125.674 4.3753C126.088 3.96385 126.321 3.4049 126.323 2.82143C126.328 2.53075 126.274 2.24209 126.165 1.97249C126.057 1.7029 125.895 1.45784 125.69 1.25181C125.485 1.04579 125.24 0.882963 124.971 0.77297C124.702 0.662978 124.414 0.608048 124.123 0.611427M123.314 1.56643H124.092C124.357 1.5298 124.627 1.59248 124.849 1.74243C124.937 1.81509 125.007 1.90698 125.054 2.01101C125.101 2.11503 125.123 2.22842 125.119 2.34243C125.125 2.4917 125.082 2.63882 124.995 2.76028C124.908 2.88174 124.782 2.97052 124.639 3.01243L125.181 4.00443H124.659L124.175 3.10443H123.767V4.00443H123.314V1.56643ZM123.767 1.96043V2.72443H123.926C124.082 2.72443 124.14 2.72443 124.226 2.71743C124.28 2.72423 124.334 2.71957 124.386 2.70375C124.437 2.68793 124.485 2.66131 124.525 2.62566C124.566 2.59001 124.599 2.54614 124.621 2.49697C124.643 2.44779 124.655 2.39443 124.655 2.34043C124.658 2.27288 124.642 2.2058 124.608 2.14751C124.573 2.08921 124.523 2.04225 124.462 2.01243C124.306 1.95956 124.141 1.9418 123.978 1.96043H123.767Z" fill="white"/>
<path d="M123.613 52.8307C123.613 52.8307 122.748 51.8707 121.313 50.3227C120.281 49.2717 119.682 47.8702 119.637 46.3977V0.679688H102.337V37.2437C102.124 40.7067 98.737 41.5847 96.873 41.5237C94.19 41.4427 92.629 39.9237 92.629 37.3487V0.679688H75.778C75.778 0.679688 68.743 0.690687 63.9 0.690687C54.676 0.690687 45.973 2.10969 43.027 9.79069L41.29 2.99069C41.0383 2.31288 40.5854 1.72823 39.992 1.31517C39.3986 0.902098 38.693 0.680359 37.97 0.679688H7.853C7.414 0.679688 7.253 0.821687 7.474 1.12969C7.474 1.12969 8.291 1.90969 9.779 3.61269C10.3851 4.37783 10.8125 5.26883 11.0298 6.22046C11.2471 7.17209 11.2489 8.16028 11.035 9.11269L0 53.2657H16.059L18.367 43.5717H33.867L36.28 53.2657H57.425C66.104 53.2657 73.163 52.3807 76.642 46.9657C79.242 51.9087 84.847 54.2267 94.733 53.3747C98.175 53.0807 101.544 51.4747 102.989 48.9047L103.673 51.0337C103.953 51.7092 104.43 52.2843 105.043 52.6834C105.655 53.0825 106.374 53.2869 107.105 53.2697H123.255C123.694 53.2697 123.836 53.1377 123.613 52.8307ZM39.7 10.0957L42.6 11.8557C42.5 12.3287 42.39 12.9667 42.321 13.4157L39.307 10.6157C39.2422 10.5611 39.2009 10.4836 39.1917 10.3993C39.1824 10.3151 39.206 10.2305 39.2574 10.1632C39.3088 10.0958 39.3842 10.0508 39.4679 10.0375C39.5516 10.0242 39.6372 10.0436 39.707 10.0917M36.742 13.7857L42.182 15.9717C42.182 16.6207 42.21 17.4957 42.282 18.1567L36.448 14.3567C36.3791 14.3134 36.329 14.2457 36.3078 14.1671C36.2867 14.0884 36.296 14.0047 36.3339 13.9327C36.3718 13.8607 36.4356 13.8056 36.5123 13.7785C36.5891 13.7514 36.6733 13.7544 36.748 13.7867M34.548 17.8867L42.553 19.6917C42.7672 20.664 43.0983 21.6069 43.539 22.4997L34.34 18.4927C34.2658 18.4621 34.206 18.4044 34.1727 18.3315C34.1393 18.2585 34.1349 18.1756 34.1602 18.0994C34.1856 18.0233 34.2389 17.9596 34.3094 17.9213C34.3799 17.8829 34.4623 17.8727 34.54 17.8927M20.783 33.9927L26.128 12.4027L31.494 33.9927H20.783ZM65.074 41.1337C63.527 42.5417 60.7 43.2267 57.59 42.9337C56.3415 42.7646 55.127 42.4023 53.99 41.8597L47.511 49.8937C47.4579 49.9593 47.3824 50.0031 47.2991 50.0165C47.2157 50.03 47.1303 50.0122 47.0592 49.9667C46.9882 49.9211 46.9364 49.8509 46.9138 49.7695C46.8913 49.6882 46.8995 49.6014 46.937 49.5257L51.377 40.5977C51.388 40.5753 51.391 40.5498 51.3853 40.5254C51.3796 40.5011 51.3657 40.4795 51.3459 40.4643C51.3261 40.4491 51.3016 40.4412 51.2767 40.442C51.2517 40.4428 51.2278 40.4522 51.209 40.4687L43.329 47.3267C43.2661 47.3809 43.1854 47.41 43.1023 47.4084C43.0193 47.4068 42.9398 47.3746 42.879 47.318C42.8183 47.2613 42.7806 47.1842 42.7732 47.1015C42.7658 47.0188 42.7893 46.9362 42.839 46.8697L48.947 38.7557C48.9627 38.7372 48.9711 38.7137 48.9707 38.6894C48.9703 38.6652 48.9611 38.642 48.9448 38.624C48.9286 38.606 48.9064 38.5946 48.8823 38.5918C48.8582 38.5889 48.834 38.595 48.814 38.6087L39.687 44.1587C39.6175 44.2018 39.5345 44.2174 39.4541 44.2024C39.3737 44.1874 39.3018 44.143 39.2525 44.0778C39.2032 44.0126 39.18 43.9313 39.1875 43.8499C39.195 43.7685 39.2326 43.6928 39.293 43.6377L46.916 36.5627C46.9317 36.5476 46.9416 36.5275 46.9441 36.5058C46.9466 36.4842 46.9415 36.4624 46.9297 36.4441C46.9179 36.4258 46.9001 36.4121 46.8794 36.4055C46.8586 36.3989 46.8362 36.3996 46.816 36.4077L36.733 40.4577C36.6583 40.49 36.5741 40.4929 36.4973 40.4659C36.4206 40.4388 36.3568 40.3837 36.3189 40.3117C36.281 40.2396 36.2717 40.1559 36.2928 40.0773C36.314 39.9987 36.3641 39.931 36.433 39.8877L45.307 34.1097C45.3251 34.0975 45.3385 34.0794 45.3447 34.0585C45.351 34.0375 45.3497 34.0151 45.3412 33.9949C45.3327 33.9748 45.3174 33.9583 45.298 33.9482C45.2787 33.9381 45.2564 33.9351 45.235 33.9397L34.536 36.3507C34.4583 36.3707 34.3759 36.3605 34.3054 36.3221C34.2349 36.2837 34.1816 36.2201 34.1562 36.1439C34.1309 36.0678 34.1353 35.9849 34.1687 35.9119C34.202 35.8389 34.2618 35.7813 34.336 35.7507L44.247 31.4217C44.2653 31.4133 44.2802 31.3988 44.289 31.3806C44.2978 31.3625 44.3 31.3418 44.2953 31.3222C44.2906 31.3026 44.2792 31.2853 44.2631 31.2731C44.247 31.261 44.2272 31.2548 44.207 31.2557L33.187 31.9627C33.108 31.9691 33.0296 31.9454 32.9673 31.8965C32.9049 31.8477 32.8633 31.7771 32.8507 31.6989C32.8381 31.6207 32.8554 31.5406 32.8992 31.4746C32.943 31.4086 33.01 31.3615 33.087 31.3427L43.681 28.6267C43.7003 28.6212 43.7171 28.6092 43.7286 28.5928C43.74 28.5763 43.7455 28.5564 43.7439 28.5364C43.7424 28.5164 43.734 28.4975 43.7202 28.483C43.7063 28.4685 43.6879 28.4592 43.668 28.4567L32.679 27.4337C32.6017 27.4261 32.5299 27.39 32.4777 27.3324C32.4255 27.2748 32.3966 27.1999 32.3966 27.1222C32.3966 27.0445 32.4255 26.9695 32.4777 26.912C32.5299 26.8544 32.6017 26.8183 32.679 26.8107L43.7 25.7837C43.7192 25.7819 43.7372 25.7734 43.7507 25.7597C43.7643 25.7459 43.7725 25.7279 43.7741 25.7086C43.7756 25.6894 43.7704 25.6703 43.7592 25.6545C43.748 25.6388 43.7317 25.6275 43.713 25.6227L33.092 22.9007C33.015 22.8819 32.948 22.8348 32.9042 22.7688C32.8604 22.7028 32.8431 22.6227 32.8557 22.5445C32.8683 22.4663 32.9099 22.3957 32.9723 22.3468C33.0346 22.2979 33.113 22.2743 33.192 22.2807L43.772 22.9597C46.478 27.9047 52.188 29.8757 57.202 31.6157C62.085 33.2947 66.284 34.7477 66.284 38.5157C66.284 39.0143 66.1759 39.507 65.9672 39.9598C65.7585 40.4126 65.4541 40.8148 65.075 41.1387M80.159 47.3387L77.659 45.1627C77.659 45.1627 78.022 44.2757 78.211 43.6507L80.644 46.8837C80.6952 46.9497 80.7198 47.0325 80.7131 47.1158C80.7064 47.1991 80.6687 47.2769 80.6076 47.3339C80.5465 47.3909 80.4663 47.4229 80.3827 47.4238C80.2992 47.4247 80.2183 47.3944 80.156 47.3387M83.788 44.1617L78.779 41.1187C78.779 41.1187 78.979 39.6537 79.017 38.8497L84.182 43.6407C84.2424 43.6958 84.28 43.7715 84.2875 43.8529C84.295 43.9343 84.2718 44.0156 84.2225 44.0808C84.1732 44.146 84.1013 44.1904 84.0209 44.2054C83.9405 44.2204 83.8575 44.2048 83.788 44.1617ZM86.727 40.4547L79.076 37.3737C79.0888 36.439 79.028 35.5048 78.894 34.5797L87.027 39.8797C87.0958 39.9232 87.1457 39.991 87.1668 40.0696C87.1879 40.1483 87.1787 40.232 87.1408 40.3041C87.103 40.3762 87.0395 40.4314 86.9628 40.4587C86.8861 40.4861 86.8019 40.4836 86.727 40.4517M90.785 27.4377L79.809 28.4577C79.7891 28.4602 79.7707 28.4695 79.7568 28.484C79.743 28.4985 79.7346 28.5174 79.7331 28.5374C79.7315 28.5574 79.737 28.5773 79.7484 28.5938C79.7599 28.6102 79.7767 28.6222 79.796 28.6277L90.375 31.3437C90.4511 31.3637 90.5171 31.4113 90.5601 31.4773C90.603 31.5432 90.6199 31.6228 90.6075 31.7005C90.595 31.7782 90.554 31.8486 90.4926 31.8977C90.4311 31.9469 90.3536 31.9715 90.275 31.9667L79.275 31.2607C79.2549 31.2598 79.235 31.266 79.2189 31.2781C79.2028 31.2903 79.1914 31.3076 79.1867 31.3272C79.182 31.3468 79.1842 31.3675 79.193 31.3856C79.2018 31.4038 79.2167 31.4183 79.235 31.4267L89.146 35.7557C89.2202 35.7863 89.28 35.8439 89.3133 35.9169C89.3467 35.9899 89.3511 36.0728 89.3258 36.1489C89.3004 36.2251 89.2471 36.2887 89.1766 36.3271C89.1061 36.3655 89.0237 36.3757 88.946 36.3557L78.805 34.0647C78.805 34.0647 78.392 29.5237 73.142 25.9027C70.3079 24.1284 67.2756 22.6926 64.107 21.6247C62.0562 20.9299 60.0727 20.0503 58.181 18.9967C56.465 17.9087 55.661 16.7387 55.661 15.3197C55.646 14.8422 55.7297 14.3668 55.907 13.9232C56.0842 13.4796 56.3511 13.0774 56.691 12.7417C57.874 11.5837 60.026 11.0627 62.935 11.0867C65.1446 11.1965 67.3197 11.6797 69.368 12.5157L75.968 4.35369C76.0212 4.28867 76.0965 4.24546 76.1795 4.23224C76.2624 4.21902 76.3474 4.23672 76.4182 4.28199C76.489 4.32725 76.5407 4.39693 76.5635 4.47779C76.5863 4.55866 76.5787 4.64509 76.542 4.72069L72.052 13.7437C72.0444 13.7614 72.043 13.7812 72.048 13.7999C72.053 13.8185 72.0642 13.8349 72.0796 13.8464C72.0951 13.858 72.114 13.864 72.1333 13.8635C72.1526 13.863 72.1711 13.856 72.186 13.8437L80.158 6.90569C80.2203 6.85002 80.3012 6.81965 80.3847 6.82054C80.4683 6.82144 80.5485 6.85352 80.6096 6.91051C80.6707 6.96749 80.7084 7.04526 80.7151 7.12854C80.7218 7.21183 80.6972 7.29463 80.646 7.36069L74.485 15.5457C74.4735 15.5618 74.4679 15.5814 74.469 15.6012C74.4702 15.621 74.4781 15.6398 74.4914 15.6545C74.5047 15.6692 74.5226 15.6789 74.5422 15.682C74.5617 15.6852 74.5818 15.6815 74.599 15.6717L83.766 10.1037C83.8361 10.0567 83.9215 10.0383 84.0047 10.0522C84.0879 10.066 84.1627 10.1112 84.2137 10.1783C84.2648 10.2455 84.2883 10.3296 84.2794 10.4135C84.2705 10.4974 84.23 10.5747 84.166 10.6297L76.536 17.7107C76.5216 17.7246 76.5125 17.743 76.5101 17.7629C76.5077 17.7827 76.5123 17.8028 76.5229 17.8197C76.5336 17.8366 76.5498 17.8493 76.5688 17.8557C76.5877 17.862 76.6083 17.8617 76.627 17.8547L86.727 13.7957C86.8019 13.7638 86.8861 13.7613 86.9628 13.7886C87.0395 13.816 87.103 13.8712 87.1408 13.9433C87.1787 14.0154 87.1879 14.0991 87.1668 14.1777C87.1457 14.2564 87.0958 14.3242 87.027 14.3677L78.127 20.1597C78.11 20.1707 78.0975 20.1873 78.0915 20.2066C78.0856 20.226 78.0867 20.2468 78.0946 20.2654C78.1024 20.284 78.1166 20.2993 78.1346 20.3085C78.1526 20.3177 78.1733 20.3202 78.193 20.3157L88.942 17.8927C89.0197 17.8727 89.1021 17.8829 89.1726 17.9213C89.2431 17.9596 89.2964 18.0233 89.3218 18.0994C89.3471 18.1756 89.3427 18.2585 89.3093 18.3315C89.276 18.4044 89.2162 18.4621 89.142 18.4927L79.231 22.8217C79.2127 22.8301 79.1978 22.8446 79.189 22.8628C79.1802 22.8809 79.178 22.9015 79.1827 22.9211C79.1874 22.9408 79.1988 22.9581 79.2149 22.9703C79.231 22.9824 79.2509 22.9886 79.271 22.9877L90.271 22.2817C90.3496 22.2769 90.4271 22.3014 90.4886 22.3506C90.55 22.3998 90.591 22.4701 90.6035 22.5479C90.6159 22.6256 90.599 22.7052 90.5561 22.7711C90.5131 22.8371 90.4471 22.8847 90.371 22.9047L79.8 25.6167C79.7807 25.6222 79.7639 25.6342 79.7524 25.6506C79.741 25.6671 79.7355 25.687 79.7371 25.707C79.7386 25.727 79.747 25.7459 79.7608 25.7604C79.7747 25.7749 79.7931 25.7842 79.813 25.7867L90.791 26.8097C90.8686 26.8173 90.9406 26.8535 90.993 26.9113C91.0453 26.969 91.0743 27.0442 91.0743 27.1222C91.0743 27.2002 91.0453 27.2753 90.993 27.3331C90.9406 27.3909 90.8686 27.4271 90.791 27.4347" fill="white"/>
</g>
</g>
</g>
<defs>
<clipPath id="clip0_9302_5262">
<rect width="326.568" height="58.862" fill="white"/>
</clipPath>
<clipPath id="clip1_9302_5262">
<rect width="326.568" height="58.862" fill="white" transform="translate(0 0.140625)"/>
</clipPath>
</defs>
</svg>
