<svg width="145" height="111" viewBox="0 0 145 111" fill="none" xmlns="http://www.w3.org/2000/svg">
<mask id="mask0_9301_5332" style="mask-type:luminance" maskUnits="userSpaceOnUse" x="0" y="0" width="145" height="111">
<path d="M144.028 0H0V110.497H144.028V0Z" fill="white"/>
</mask>
<g mask="url(#mask0_9301_5332)">
<path d="M10.7 65.2578L16.946 82.2018H12.433L11.593 79.4888H5.353L4.512 82.2018H0L6.289 65.2578H10.7ZM8.42 69.2898C8.204 70.1538 7.964 71.0418 7.72 71.9058C7.36 73.1778 6.712 75.1698 6.328 76.4418H10.628L8.42 69.2898Z" fill="#760033"/>
<path d="M21.485 70.9703C22.4907 70.0867 23.7711 69.5783 25.109 69.5312V72.7943L23.885 72.9873C22.109 73.2983 21.585 73.5632 21.585 75.1472V82.2022H17.885V69.6503H21.485V70.9703Z" fill="#760033"/>
<path d="M26.381 65.2344H30.029V68.0904H26.381V65.2344ZM26.381 69.6504H30.029V82.2034H26.381V69.6504Z" fill="#760033"/>
<path d="M32.2849 69.6719H43.0139V72.4999L36.3409 79.3199H43.0139V82.1999H31.5649V79.4169L38.3329 72.4999H32.2849V69.6719Z" fill="#760033"/>
<path d="M57.1501 75.9135C57.1501 79.0825 55.3261 82.5615 50.4291 82.5615C46.9011 82.5615 43.6851 80.5455 43.6851 75.9135C43.6851 72.0735 46.1091 69.0245 50.9091 69.2895C56.0221 69.5775 57.1501 73.6325 57.1501 75.9135ZM48.0291 73.4415C47.5939 74.1821 47.3775 75.0309 47.4051 75.8895C47.4051 77.8815 48.3651 79.6335 50.4291 79.6335C52.4221 79.6335 53.4051 78.0255 53.4051 76.0575C53.4525 75.4911 53.3857 74.921 53.2086 74.3809C53.0315 73.8408 52.7477 73.3418 52.3741 72.9135C52.087 72.6461 51.7449 72.4449 51.3717 72.3239C50.9985 72.203 50.6034 72.1653 50.2141 72.2135C49.7743 72.2074 49.3407 72.3175 48.9571 72.5326C48.5734 72.7477 48.2533 73.0601 48.0291 73.4385" fill="#760033"/>
<path d="M62.117 70.8006C62.4545 70.3837 62.8809 70.0475 63.365 69.8166C64.0887 69.5196 64.8628 69.3647 65.645 69.3606C66.4189 69.3433 67.1854 69.5149 67.878 69.8606C69.198 70.5606 69.534 71.6856 69.534 73.6286V82.2006H65.862V75.1456C65.9243 74.5165 65.867 73.8813 65.693 73.2736C65.5477 72.9639 65.3112 72.706 65.0152 72.5345C64.7193 72.3629 64.378 72.2858 64.037 72.3136C62.093 72.3136 62.093 73.8726 62.093 75.4336V82.2006H58.4V69.7006H62.12L62.117 70.8006Z" fill="#760033"/>
<path d="M71.356 73.2227C71.349 72.6885 71.4644 72.1597 71.6934 71.677C71.9224 71.1942 72.2588 70.7703 72.677 70.4377C73.8802 69.6186 75.3253 69.2309 76.777 69.3377C78.313 69.3377 82.033 69.6977 82.033 72.9377V80.2377C82.033 81.5827 82.105 81.7737 82.393 82.2067H78.773V81.0477C77.7133 81.9888 76.3502 82.517 74.933 82.5357C74.408 82.5773 73.88 82.5093 73.3827 82.336C72.8854 82.1628 72.4295 81.888 72.0439 81.5292C71.6584 81.1704 71.3517 80.7353 71.1432 80.2517C70.9348 79.7681 70.8291 79.2464 70.833 78.7197C70.8716 77.9269 71.1425 77.163 71.6119 76.5229C72.0813 75.8828 72.7285 75.3949 73.473 75.1197C75.0881 74.6063 76.7413 74.2211 78.417 73.9677V73.2987C78.369 72.7227 78.317 71.7627 77.001 71.7627C75.369 71.7627 75.153 72.7707 75.057 73.2267L71.356 73.2227ZM76.037 76.9907C75.413 77.2307 74.453 77.5907 74.453 78.5517C74.4709 78.9043 74.6271 79.2356 74.8877 79.4737C75.1483 79.7118 75.4922 79.8376 75.845 79.8237C76.2988 79.8092 76.7394 79.6679 77.117 79.4157C78.341 78.6467 78.389 77.4947 78.417 76.1987L76.037 76.9907Z" fill="#760033"/>
<path d="M90.22 77.1087C90.6711 77.6527 91.2259 78.1014 91.852 78.4287C92.8571 78.9633 93.9777 79.2438 95.116 79.2458C96.797 79.2458 98.237 78.4537 98.237 77.2767C98.237 75.9327 96.532 75.7168 95.284 75.5488C94.348 75.4288 93.412 75.3088 92.5 75.1168C91.468 74.9008 87.94 74.1568 87.94 70.5078C87.94 66.1398 91.828 64.8438 94.757 64.8438C96.158 64.8441 97.5442 65.1294 98.8315 65.6823C100.119 66.2352 101.28 67.044 102.245 68.0598L99.125 70.2968C98.632 69.7639 98.0665 69.303 97.445 68.9277C96.5967 68.4642 95.6503 68.2092 94.684 68.1837C93.004 68.1837 92.164 69.1437 92.164 69.9607C92.164 71.2607 93.604 71.4487 94.324 71.5447C96.0765 71.7416 97.8103 72.0783 99.509 72.5518C100.384 72.8291 101.144 73.3852 101.672 74.1352C102.201 74.8852 102.47 75.7877 102.437 76.7048C102.424 78.0251 101.949 79.2991 101.093 80.3047C99.557 82.0817 97.109 82.5857 94.733 82.5857C89.956 82.5857 88.06 80.3777 87.004 79.1527L90.22 77.1087Z" fill="#760033"/>
<path d="M104.26 66.0469H107.932V69.9589H110.356V72.2149H107.908V77.8559C107.884 78.6239 107.884 79.2719 108.868 79.2719L110.188 79.2239V82.1039C109.546 82.2215 108.896 82.2857 108.244 82.2959C106.972 82.2959 105.58 82.2239 104.788 81.0719C104.329 80.2029 104.145 79.2149 104.26 78.2389V72.1919H102.436V69.9349H104.26V66.0469Z" fill="#760033"/>
<path d="M111.483 73.2227C111.476 72.6885 111.591 72.1597 111.82 71.677C112.049 71.1942 112.386 70.7703 112.804 70.4377C114.007 69.6186 115.452 69.2309 116.904 69.3377C118.44 69.3377 122.16 69.6977 122.16 72.9377V80.2377C122.16 81.5827 122.232 81.7737 122.52 82.2067H118.9V81.0477C117.84 81.9888 116.477 82.517 115.06 82.5357C114.535 82.5773 114.007 82.5093 113.51 82.336C113.012 82.1628 112.557 81.888 112.171 81.5292C111.786 81.1704 111.479 80.7353 111.27 80.2517C111.062 79.7681 110.956 79.2464 110.96 78.7197C110.999 77.9269 111.27 77.163 111.739 76.5229C112.208 75.8828 112.856 75.3949 113.6 75.1197C115.215 74.6063 116.868 74.2211 118.544 73.9677V73.2987C118.496 72.7227 118.444 71.7627 117.128 71.7627C115.496 71.7627 115.28 72.7707 115.184 73.2267L111.483 73.2227ZM116.164 76.9907C115.54 77.2307 114.58 77.5907 114.58 78.5517C114.598 78.9043 114.754 79.2356 115.015 79.4737C115.275 79.7118 115.619 79.8376 115.972 79.8237C116.426 79.8092 116.867 79.6679 117.244 79.4157C118.468 78.6467 118.516 77.4947 118.544 76.1987L116.164 76.9907Z" fill="#760033"/>
<path d="M124.731 66.0469H128.4V69.9589H130.824V72.2149H128.376V77.8559C128.352 78.6239 128.352 79.2719 129.336 79.2719L130.656 79.2239V82.1039C130.014 82.2215 129.364 82.2857 128.712 82.2959C127.44 82.2959 126.048 82.2239 125.256 81.0719C124.797 80.2029 124.613 79.2149 124.728 78.2389V72.1919H122.904V69.9349H124.728L124.731 66.0469Z" fill="#760033"/>
<path d="M143.883 79.0058C143.458 79.6895 142.95 80.3182 142.371 80.8778C141.077 82.0476 139.387 82.6824 137.643 82.6538C133.922 82.6538 131.306 80.2778 131.306 76.1738C131.306 73.1488 132.794 69.2608 137.739 69.2608C138.574 69.2347 139.406 69.3811 140.183 69.6908C140.959 70.0005 141.663 70.4669 142.251 71.0608C143.883 72.8128 143.98 75.2608 144.027 76.6778H135.075C135.033 77.0755 135.075 77.4777 135.2 77.8576C135.325 78.2376 135.53 78.5866 135.8 78.8817C136.07 79.1767 136.399 79.4109 136.767 79.5689C137.134 79.7268 137.531 79.8048 137.931 79.7978C138.624 79.8066 139.301 79.5985 139.87 79.2025C140.438 78.8065 140.868 78.2425 141.099 77.5898L143.883 79.0058ZM140.211 74.3728C140.179 73.7203 139.933 73.0966 139.511 72.5978C139.023 72.142 138.379 71.8913 137.711 71.8978C137.36 71.8969 137.012 71.969 136.689 72.1094C136.367 72.2499 136.078 72.4557 135.839 72.7138C135.439 73.1842 135.181 73.7585 135.095 74.3698L140.211 74.3728Z" fill="#760033"/>
<path d="M14.493 89.2578V98.7138C14.6185 100.374 14.2777 102.037 13.509 103.514C11.685 106.443 7.91601 106.586 7.19601 106.586C5.83189 106.584 4.48607 106.272 3.26001 105.674C1.19209e-05 103.995 1.18606e-05 101.019 0.0200119 98.7138V89.2578H4.29201V99.8188C4.22762 100.538 4.33454 101.261 4.60401 101.931C4.92476 102.339 5.34423 102.659 5.8229 102.861C6.30157 103.062 6.82367 103.139 7.34001 103.083C10.221 103.083 10.221 101.114 10.24 99.7938V89.2578H14.493Z" fill="#760033"/>
<path d="M20.131 94.8006C20.4685 94.3837 20.8949 94.0475 21.379 93.8166C22.1027 93.5196 22.8768 93.3647 23.659 93.3606C24.4329 93.3433 25.1993 93.5149 25.892 93.8606C27.212 94.5606 27.548 95.6856 27.548 97.6286V106.201H23.876V99.1456C23.9383 98.5165 23.8809 97.8813 23.707 97.2736C23.5616 96.9639 23.3251 96.706 23.0292 96.5345C22.7332 96.3629 22.3919 96.2858 22.051 96.3136C20.107 96.3136 20.107 97.8726 20.107 99.4336V106.201H16.407V93.7006H20.127L20.131 94.8006Z" fill="#760033"/>
<path d="M29.467 89.2344H33.115V92.0904H29.467V89.2344ZM29.467 93.6504H33.115V106.203H29.467V93.6504Z" fill="#760033"/>
<path d="M34.194 93.6719H38.082C39.0006 96.6651 39.7383 99.711 40.291 102.793C40.791 100.009 40.866 99.6929 41.611 96.7439L42.379 93.6719H46.171L42.115 106.2H38.25L34.194 93.6719Z" fill="#760033"/>
<path d="M58.7 103.006C58.2749 103.69 57.767 104.318 57.188 104.878C55.8941 106.048 54.2042 106.682 52.46 106.654C48.739 106.654 46.123 104.278 46.123 100.174C46.123 97.1488 47.611 93.2608 52.556 93.2608C53.3914 93.2347 54.2232 93.3811 54.9995 93.6908C55.7758 94.0005 56.48 94.4669 57.068 95.0608C58.7 96.8128 58.797 99.2608 58.844 100.678H49.891C49.8487 101.075 49.8915 101.478 50.0164 101.858C50.1413 102.238 50.3456 102.587 50.6156 102.882C50.8857 103.177 51.2154 103.411 51.5829 103.569C51.9503 103.727 52.3471 103.805 52.747 103.798C53.4395 103.807 54.1174 103.598 54.6856 103.202C55.2538 102.806 55.6837 102.243 55.915 101.59L58.7 103.006ZM55.028 98.3728C54.9958 97.7203 54.7498 97.0966 54.328 96.5978C53.8402 96.142 53.1957 95.8913 52.528 95.8978C52.1765 95.8969 51.8287 95.969 51.5065 96.1094C51.1842 96.2499 50.8947 96.4557 50.656 96.7138C50.2563 97.1842 49.9983 97.7585 49.912 98.3698L55.028 98.3728Z" fill="#760033"/>
<path d="M63.9311 94.9703C64.9368 94.0867 66.2172 93.5783 67.5551 93.5312V96.7943L66.3311 96.9873C64.5551 97.2983 64.0311 97.5632 64.0311 99.1472V106.202H60.3311V93.6503H63.9311V94.9703Z" fill="#760033"/>
<path d="M69.786 101.979C70.7297 103.009 72.0389 103.63 73.434 103.708C74.322 103.708 75.666 103.419 75.666 102.483C75.668 102.328 75.6233 102.177 75.5376 102.048C75.4519 101.92 75.3293 101.82 75.186 101.763C74.4994 101.505 73.7807 101.344 73.05 101.283C72.4827 101.189 71.9217 101.061 71.37 100.899C70.5939 100.721 69.8754 100.35 69.282 99.8187C68.6768 99.1853 68.3412 98.3417 68.346 97.4657C68.346 95.4027 70.122 93.2657 73.626 93.2657C75.6454 93.2582 77.611 93.9161 79.219 95.1377L76.938 97.2497C76.0566 96.4978 74.9511 96.059 73.794 96.0017C72.354 96.0017 72.018 96.5787 72.018 96.9387C72.018 97.6587 72.81 97.8017 74.01 98.0187C76.531 98.4747 79.459 99.1467 79.459 102.119C79.459 105.072 76.482 106.511 73.53 106.511C72.4062 106.541 71.2879 106.342 70.2438 105.926C69.1996 105.509 68.2517 104.883 67.458 104.087L69.786 101.979Z" fill="#760033"/>
<path d="M80.61 89.2344H84.258V92.0904H80.61V89.2344ZM80.61 93.6504H84.258V106.203H80.61V93.6504Z" fill="#760033"/>
<path d="M87.378 90.0469H91.05V93.9589H93.474V96.2149H91.026V101.856C91.002 102.624 91.002 103.272 91.986 103.272L93.306 103.224V106.104C92.6644 106.221 92.0141 106.286 91.362 106.296C90.09 106.296 88.698 106.224 87.906 105.072C87.4469 104.203 87.2628 103.215 87.378 102.239V96.1919H85.554V93.9349H87.378V90.0469Z" fill="#760033"/>
<path d="M106.338 93.6749L101.921 107.212C101.691 108.045 101.291 108.821 100.746 109.492C100.41 109.854 99.9943 110.134 99.5319 110.309C99.0696 110.484 98.573 110.549 98.0811 110.5H95.4171V107.572H96.7171C97.3171 107.548 98.2531 107.548 98.2531 106.66C98.2365 106.358 98.18 106.059 98.0851 105.772L94.3411 93.6719H98.2781L100.342 102.649L102.406 93.6719L106.338 93.6749Z" fill="#760033"/>
<path d="M123.628 52.2203C123.628 52.2203 122.763 51.2613 121.328 49.7133C120.295 48.662 119.697 47.2602 119.652 45.7873V0.0703137H102.352V36.6343C102.139 40.0983 98.757 40.9763 96.888 40.9153C94.205 40.8343 92.644 39.3153 92.644 36.7393V0.0703137H75.793C75.793 0.0703137 68.758 0.0813137 63.92 0.0813137C54.7 0.0813137 45.992 1.49831 43.047 9.17631L41.31 2.37631C41.0571 1.69872 40.603 1.11467 40.0087 0.702492C39.4144 0.290316 38.7083 0.0697274 37.985 0.0703137H7.86801C7.42901 0.0703137 7.26801 0.212314 7.48901 0.520314C7.48901 0.520314 8.30601 1.30031 9.78901 3.00331C10.3955 3.76735 10.8234 4.6573 11.0416 5.60805C11.2598 6.55881 11.2627 7.54631 11.05 8.49831L0.0150146 52.6553H16.074L18.382 42.9623H33.882L36.3 52.6553H57.439C66.119 52.6553 73.178 51.7713 76.657 46.3553C79.257 51.2983 84.862 53.6163 94.747 52.7643C98.19 52.4703 101.559 50.8643 103.004 48.2943L103.688 50.4233C103.968 51.0988 104.445 51.674 105.058 52.0731C105.67 52.4721 106.389 52.6765 107.12 52.6593H123.27C123.709 52.6593 123.851 52.5283 123.628 52.2203ZM20.794 33.3813L26.139 11.7913L31.5 33.3813H20.794Z" fill="#760033"/>
<path d="M124.137 4.14223C123.878 4.14768 123.621 4.10137 123.38 4.00602C123.14 3.91066 122.92 3.76817 122.736 3.58693C122.551 3.40568 122.404 3.18934 122.304 2.95059C122.204 2.71185 122.153 2.45552 122.153 2.19666C122.153 1.9378 122.206 1.68163 122.306 1.44319C122.407 1.20476 122.554 0.988865 122.74 0.808193C122.925 0.627521 123.145 0.485713 123.386 0.391098C123.627 0.296482 123.884 0.250967 124.143 0.257225C124.398 0.25535 124.651 0.304378 124.888 0.401447C125.124 0.498515 125.338 0.641677 125.519 0.822569C125.699 1.00346 125.841 1.21846 125.937 1.455C126.034 1.69154 126.082 1.94488 126.079 2.20023C126.081 2.45561 126.032 2.70887 125.935 2.94517C125.839 3.18147 125.695 3.39608 125.515 3.57644C125.334 3.7568 125.119 3.8993 124.882 3.99558C124.646 4.09187 124.392 4.14003 124.137 4.13723M124.131 0.000225408C123.842 -0.00178078 123.555 0.0538058 123.288 0.163743C123.02 0.27368 122.777 0.435767 122.573 0.64055C122.369 0.845333 122.208 1.08871 122.099 1.35649C121.99 1.62427 121.935 1.91109 121.938 2.20023C121.937 2.48913 121.993 2.77538 122.103 3.04262C122.213 3.30987 122.374 3.55287 122.578 3.75776C122.989 4.17156 123.548 4.405 124.131 4.40673C124.715 4.40845 125.275 4.17832 125.689 3.76696C126.103 3.3556 126.336 2.7967 126.338 2.21323C126.343 1.92174 126.289 1.63223 126.18 1.36188C126.071 1.09152 125.909 0.845845 125.703 0.639426C125.497 0.433007 125.252 0.270057 124.982 0.160253C124.712 0.0504493 124.422 -0.00397042 124.131 0.000225408ZM123.323 0.955225H124.101C124.366 0.918597 124.636 0.981274 124.858 1.13123C124.946 1.20389 125.016 1.29578 125.063 1.3998C125.11 1.50383 125.132 1.61722 125.128 1.73123C125.134 1.88063 125.09 2.02785 125.003 2.14932C124.916 2.2708 124.791 2.3595 124.647 2.40123L125.19 3.39323H124.668L124.184 2.49323H123.776V3.39323H123.323V0.955225ZM123.776 1.34923V2.11323H123.935C124.09 2.11323 124.149 2.11323 124.235 2.10623C124.289 2.11303 124.343 2.10837 124.395 2.09254C124.446 2.07672 124.494 2.0501 124.534 2.01446C124.575 1.97881 124.608 1.93494 124.63 1.88576C124.652 1.83659 124.664 1.78323 124.664 1.72923C124.667 1.66172 124.651 1.59475 124.616 1.53651C124.582 1.47826 124.532 1.43125 124.471 1.40123C124.315 1.34846 124.15 1.3307 123.987 1.34923H123.776Z" fill="#760033"/>
<path d="M42.6159 11.2442C42.5159 11.7172 42.4059 12.3552 42.3379 12.8042L39.3239 10.0042C39.2592 9.94954 39.2179 9.87207 39.2086 9.78782C39.1994 9.70358 39.2229 9.61901 39.2744 9.55164C39.3258 9.48427 39.4012 9.43927 39.4849 9.42597C39.5686 9.41266 39.6542 9.43207 39.7239 9.48017L42.6159 11.2442Z" fill="#FFBC20"/>
<path d="M42.1939 15.3705C42.1939 16.0185 42.2219 16.8935 42.2939 17.5555L36.4599 13.7555C36.3888 13.7134 36.3365 13.6455 36.3139 13.566C36.2914 13.4864 36.3004 13.4012 36.3389 13.3281C36.3775 13.2549 36.4427 13.1994 36.5211 13.173C36.5995 13.1467 36.685 13.1515 36.7599 13.1865L42.1939 15.3705Z" fill="#FFBC20"/>
<path d="M43.542 21.8964C43.101 21.0036 42.7696 20.0608 42.555 19.0884L34.555 17.2834C34.4772 17.2634 34.3948 17.2737 34.3244 17.312C34.2539 17.3504 34.2006 17.4141 34.1752 17.4902C34.1498 17.5663 34.1543 17.6492 34.1876 17.7222C34.221 17.7952 34.2808 17.8528 34.355 17.8834L43.542 21.8964Z" fill="#FFBC20"/>
<path d="M43.786 22.3519C46.493 27.2979 52.203 29.2679 57.216 31.0079C62.1 32.6869 66.3 34.1399 66.3 37.9009C66.3002 38.3994 66.1923 38.8921 65.9837 39.3449C65.7752 39.7977 65.471 40.2 65.092 40.5239C63.544 41.9329 60.717 42.6169 57.608 42.3239C56.3596 42.154 55.1451 41.7914 54.008 41.2489L47.529 49.2829C47.4758 49.3479 47.4005 49.3911 47.3176 49.4043C47.2346 49.4176 47.1496 49.3999 47.0788 49.3546C47.008 49.3093 46.9563 49.2397 46.9335 49.1588C46.9107 49.0779 46.9183 48.9915 46.955 48.9159L51.395 39.9869C51.406 39.9645 51.409 39.939 51.4033 39.9146C51.3976 39.8903 51.3837 39.8687 51.3639 39.8535C51.3441 39.8383 51.3196 39.8304 51.2947 39.8312C51.2697 39.832 51.2458 39.8415 51.227 39.8579L43.347 46.7159C43.2841 46.7701 43.2034 46.7993 43.1203 46.7976C43.0373 46.796 42.9578 46.7638 42.897 46.7072C42.8363 46.6505 42.7986 46.5734 42.7912 46.4907C42.7838 46.408 42.8073 46.3254 42.857 46.2589L48.965 38.1449C48.9777 38.1263 48.9838 38.104 48.9823 38.0815C48.9808 38.059 48.9717 38.0377 48.9565 38.021C48.9413 38.0044 48.921 37.9933 48.8988 37.9896C48.8765 37.986 48.8537 37.99 48.834 38.0009L39.707 43.5509C39.6375 43.594 39.5545 43.6096 39.4741 43.5946C39.3937 43.5796 39.3218 43.5352 39.2725 43.47C39.2232 43.4048 39.2 43.3235 39.2075 43.2421C39.215 43.1607 39.2526 43.085 39.313 43.0299L46.936 35.9549C46.9533 35.9403 46.9646 35.9199 46.9679 35.8976C46.9713 35.8752 46.9664 35.8524 46.9541 35.8335C46.9419 35.8145 46.9231 35.8006 46.9014 35.7944C46.8796 35.7882 46.8564 35.7902 46.836 35.7999L36.753 39.8499C36.6783 39.8822 36.5941 39.8851 36.5173 39.8581C36.4406 39.831 36.3768 39.7759 36.3389 39.7039C36.301 39.6318 36.2917 39.5481 36.3128 39.4695C36.334 39.3909 36.3841 39.3232 36.453 39.2799L45.332 33.5009C45.3505 33.4891 45.3642 33.4711 45.3707 33.4502C45.3773 33.4293 45.3762 33.4067 45.3677 33.3865C45.3592 33.3663 45.3438 33.3497 45.3243 33.3397C45.3048 33.3297 45.2824 33.327 45.261 33.3319L34.552 35.7439C34.4743 35.7639 34.3919 35.7537 34.3214 35.7153C34.2509 35.6769 34.1976 35.6133 34.1722 35.5371C34.1469 35.461 34.1513 35.3781 34.1847 35.3051C34.218 35.2321 34.2778 35.1745 34.352 35.1439L44.264 30.8149C44.283 30.807 44.2985 30.7925 44.3077 30.7742C44.3169 30.7558 44.3193 30.7347 44.3143 30.7148C44.3094 30.6948 44.2974 30.6773 44.2807 30.6654C44.2639 30.6535 44.2435 30.648 44.223 30.6499L33.203 31.3559C33.124 31.3623 33.0456 31.3386 32.9833 31.2898C32.9209 31.2409 32.8793 31.1703 32.8667 31.0921C32.8541 31.0139 32.8714 30.9338 32.9152 30.8678C32.959 30.8018 33.026 30.7547 33.103 30.7359L43.7 28.0199C43.7193 28.0144 43.7361 28.0024 43.7476 27.986C43.759 27.9695 43.7645 27.9496 43.7629 27.9296C43.7614 27.9096 43.753 27.8907 43.7392 27.8762C43.7253 27.8617 43.7069 27.8524 43.687 27.8499L32.695 26.8259C32.6168 26.8196 32.5439 26.7841 32.4907 26.7265C32.4375 26.6689 32.408 26.5933 32.408 26.5149C32.408 26.4365 32.4375 26.3609 32.4907 26.3033C32.5439 26.2457 32.6168 26.2102 32.695 26.2039L43.713 25.1769C43.7328 25.1756 43.7514 25.1673 43.7655 25.1533C43.7795 25.1394 43.7881 25.1209 43.7895 25.1011C43.791 25.0814 43.7853 25.0618 43.7734 25.0459C43.7615 25.0301 43.7444 25.0191 43.725 25.0149L33.107 22.2929C33.03 22.2741 32.963 22.227 32.9192 22.161C32.8754 22.095 32.8581 22.0149 32.8707 21.9367C32.8833 21.8585 32.9249 21.7879 32.9873 21.739C33.0496 21.6901 33.128 21.6665 33.207 21.6729L43.786 22.3519Z" fill="#FFBC20"/>
<path d="M77.676 44.5511C77.676 44.5511 78.039 43.6651 78.228 43.0391L80.661 46.2731C80.7111 46.3392 80.7348 46.4216 80.7276 46.5042C80.7203 46.5869 80.6827 46.6639 80.622 46.7204C80.5613 46.7769 80.4817 46.8089 80.3988 46.8101C80.3159 46.8113 80.2354 46.7817 80.173 46.7271L77.676 44.5511Z" fill="#FFBC20"/>
<path d="M78.8 40.5034C78.8 40.5034 79 39.0384 79.038 38.2344L84.2 43.0294C84.2596 43.0846 84.2965 43.16 84.3037 43.2409C84.3108 43.3218 84.2877 43.4025 84.2388 43.4673C84.1899 43.5322 84.1187 43.5765 84.0389 43.5919C83.9591 43.6072 83.8765 43.5924 83.807 43.5504L78.8 40.5034Z" fill="#FFBC20"/>
<path d="M79.0899 36.7627C79.1038 35.8281 79.0433 34.8938 78.9089 33.9688L87.0419 39.2687C87.1108 39.3122 87.1607 39.3801 87.1818 39.4587C87.2029 39.5373 87.1936 39.621 87.1558 39.6931C87.118 39.7652 87.0544 39.8205 86.9777 39.8478C86.901 39.8752 86.8168 39.8726 86.7419 39.8408L79.0899 36.7627Z" fill="#FFBC20"/>
<path d="M78.82 33.4554C78.82 33.4554 78.407 28.9144 73.157 25.2934C70.3228 23.5193 67.2905 22.0835 64.122 21.0154C62.0726 20.3204 60.0904 19.4408 58.2 18.3874C56.484 17.2994 55.68 16.1304 55.68 14.7104C55.6647 14.2331 55.7482 13.7577 55.9255 13.3142C56.1028 12.8707 56.3699 12.4687 56.71 12.1334C57.893 10.9744 60.045 10.4534 62.954 10.4774C65.1635 10.5879 67.3385 11.071 69.387 11.9064L75.987 3.74442C76.0401 3.67878 76.1156 3.63505 76.1989 3.62158C76.2823 3.60811 76.3677 3.62586 76.4388 3.67144C76.5099 3.71701 76.5616 3.7872 76.5842 3.86856C76.6067 3.94993 76.5985 4.03676 76.561 4.11242L72.073 13.1374C72.0654 13.1552 72.064 13.1749 72.069 13.1936C72.074 13.2122 72.0852 13.2286 72.1006 13.2402C72.1161 13.2517 72.135 13.2577 72.1543 13.2572C72.1736 13.2567 72.1922 13.2497 72.207 13.2374L80.173 6.29942C80.2353 6.24375 80.3162 6.21339 80.3998 6.21428C80.4833 6.21517 80.5635 6.24725 80.6246 6.30424C80.6858 6.36122 80.7234 6.43899 80.7301 6.52228C80.7368 6.60557 80.7122 6.68836 80.661 6.75442L74.5 14.9424C74.4885 14.9586 74.4829 14.9782 74.4841 14.9979C74.4852 15.0177 74.4931 15.0365 74.5064 15.0512C74.5197 15.0659 74.5376 15.0756 74.5572 15.0788C74.5767 15.0819 74.5968 15.0782 74.614 15.0684L83.781 9.49442C83.8511 9.44746 83.9365 9.42904 84.0197 9.44291C84.1029 9.45678 84.1777 9.5019 84.2287 9.56905C84.2798 9.6362 84.3033 9.72031 84.2944 9.8042C84.2855 9.88809 84.245 9.96543 84.181 10.0204L76.548 17.0994C76.533 17.1131 76.5233 17.1316 76.5206 17.1516C76.5179 17.1717 76.5224 17.1921 76.5333 17.2092C76.5442 17.2264 76.5607 17.2391 76.5801 17.2451C76.5994 17.2512 76.6203 17.2502 76.639 17.2424L86.744 13.1834C86.8189 13.1515 86.9031 13.149 86.9798 13.1764C87.0565 13.2037 87.12 13.2589 87.1579 13.331C87.1957 13.4031 87.205 13.4868 87.1839 13.5655C87.1628 13.6441 87.1128 13.7119 87.044 13.7554L78.144 19.5474C78.1276 19.5588 78.1155 19.5754 78.1099 19.5946C78.1043 19.6138 78.1055 19.6343 78.1132 19.6527C78.121 19.6711 78.1348 19.6863 78.1525 19.6957C78.1701 19.7052 78.1904 19.7082 78.21 19.7044L88.96 17.2844C89.0377 17.2644 89.1201 17.2746 89.1906 17.313C89.2611 17.3514 89.3144 17.415 89.3398 17.4912C89.3651 17.5673 89.3607 17.6502 89.3273 17.7232C89.294 17.7962 89.2342 17.8538 89.16 17.8844L79.248 22.2134C79.2296 22.2218 79.2146 22.2364 79.2058 22.2547C79.197 22.273 79.1948 22.2937 79.1997 22.3134C79.2046 22.3331 79.2161 22.3505 79.2325 22.3625C79.2488 22.3746 79.2688 22.3806 79.289 22.3794L90.289 21.6734C90.3676 21.6686 90.4451 21.6932 90.5066 21.7424C90.568 21.7916 90.609 21.8619 90.6215 21.9396C90.6339 22.0173 90.6171 22.0969 90.5741 22.1628C90.5311 22.2288 90.4651 22.2764 90.389 22.2964L79.811 25.0074C79.7917 25.0129 79.7749 25.0249 79.7635 25.0414C79.752 25.0578 79.7466 25.0777 79.7481 25.0977C79.7496 25.1177 79.758 25.1366 79.7718 25.1511C79.7857 25.1656 79.8041 25.1749 79.824 25.1774L90.8 26.1994C90.8776 26.207 90.9496 26.2432 91.002 26.301C91.0543 26.3588 91.0834 26.434 91.0834 26.5119C91.0834 26.5899 91.0543 26.6651 91.002 26.7228C90.9496 26.7806 90.8776 26.8168 90.8 26.8244L79.824 27.8484C79.8041 27.8509 79.7857 27.8602 79.7718 27.8747C79.758 27.8893 79.7496 27.9081 79.7481 27.9281C79.7466 27.9481 79.752 27.968 79.7635 27.9845C79.7749 28.0009 79.7917 28.0129 79.811 28.0184L90.39 30.7304C90.4661 30.7504 90.5321 30.798 90.5751 30.864C90.6181 30.9299 90.6349 31.0095 90.6225 31.0873C90.61 31.165 90.569 31.2353 90.5076 31.2845C90.4461 31.3337 90.3686 31.3583 90.29 31.3534L79.29 30.6534C79.2695 30.6515 79.2491 30.6571 79.2323 30.669C79.2156 30.6809 79.2036 30.6984 79.1987 30.7183C79.1937 30.7383 79.1961 30.7593 79.2053 30.7777C79.2145 30.7961 79.23 30.8105 79.249 30.8184L89.161 35.1474C89.2352 35.178 89.295 35.2357 89.3283 35.3086C89.3617 35.3816 89.3661 35.4645 89.3408 35.5407C89.3154 35.6168 89.2621 35.6805 89.1916 35.7188C89.1211 35.7572 89.0387 35.7674 88.961 35.7474L78.82 33.4554Z" fill="#FFBC20"/>
</g>
</svg>
